# xmcd
#
# Track frame offsets:
#	150
#	13369
#	29112
#	41860
#	55753
#	69334
#	87245
#	101787
#	115288
#	128108
#	140156
#	151722
#	165602
#	180293
#	200363
#	216145
#	240281
#	269135
#	284629
#	301290
#
# Disc length: 4397 seconds
#
# Revision: 1
# Processed by: cddbd v1.5.2PL0 Copyright (c) Steve Scherf et al.
# Submitted via: audiograbber 1.83.01
#
DISCID=29112b14
DTITLE=Various Artist - soundtrack- Motown, The Musical, Originals, cd 2
DYEAR=2003
DGENRE=Soul
TTITLE0=Diana Ross and The Supremes - Love Child
TTITLE1=The Temptations - Cloud Nine
TTITLE2=Stevie Wonder - For Once In My Life
TTITLE3=The Miracles - Who's Loving You
TTITLE4=I Want You Back - The Jackson 5
TTITLE5=The Jackson 5 - I'll Be There
TTITLE6=The Supremes - Up The Ladder To The Roof
TTITLE7=The Temptations - My Girl
TTITLE8=Marvin Gaye and Tammi Terrell - You're All I Need To Get Buy
TTITLE9=The Supremes -  I Hear A Symphony
TTITLE10=The Supremes - My World Is Empty Without You
TTITLE11=Diana Ross - Reach Out And Touch (Somebody's Hand)
TTITLE12=Marvin Gaye - Mercy Mercy Me (The Ecology)
TTITLE13=Smokey Robinson - Crusin'
TTITLE14=The Commodores - Brick House
TTITLE15=Diana Ross - I'm Coming Out
TTITLE16=Lionel Richie - All Night Long (All Night)
TTITLE17=Rick James - Super Freak
TTITLE18=Diana Ross - Remember Me
TTITLE19=Diana Ross - Ain't No Mountain High Enough
EXTD=
EXTT0=
EXTT1=
EXTT2=
EXTT3=
EXTT4=
EXTT5=
EXTT6=
EXTT7=
EXTT8=
EXTT9=
EXTT10=
EXTT11=
EXTT12=
EXTT13=
EXTT14=
EXTT15=
EXTT16=
EXTT17=
EXTT18=
EXTT19=
PLAYORDER=
